HIERARCHY
ROOT Hips
{
	OFFSET 0.00000 0.00000 0.00000
	CHANNELS 6 Xposition Yposition Zposition Zrotation Yrotation Xrotation 
	JOINT LHipJoint
	{
		OFFSET 0 0 0
		CHANNELS 3 Zrotation Yrotation Xrotation
		JOINT LeftHip
		{
			OFFSET 1.84395 -1.68683 0.74144
			CHANNELS 3 Zrotation Yrotation Xrotation
			JOINT LeftKnee
			{
				OFFSET 2.27037 -6.23779 0.00000
				CHANNELS 3 Zrotation Yrotation Xrotation
				JOINT LeftAnkle
				{
					OFFSET 2.56918 -7.05877 0.00000
					CHANNELS 3 Zrotation Yrotation Xrotation
					JOINT LeftToe
					{
						OFFSET 0.22276 -0.61202 1.71784
						CHANNELS 3 Zrotation Yrotation Xrotation
						End Site
						{
							OFFSET 0.00000 -0.00000 0.91613
						}
					}
				}
			}
		}
	}
	JOINT RHipJoint
	{
		OFFSET 0 0 0
		CHANNELS 3 Zrotation Yrotation Xrotation
		JOINT RightHip
		{
			OFFSET -1.76833 -1.68684 0.74144
			CHANNELS 3 Zrotation Yrotation Xrotation
			JOINT RightKnee
			{
				OFFSET -2.49360 -6.85110 0.00000
				CHANNELS 3 Zrotation Yrotation Xrotation
				JOINT RightAnkle
				{
					OFFSET -2.55538 -7.02085 0.00000
					CHANNELS 3 Zrotation Yrotation Xrotation
					JOINT RightToe
					{
						OFFSET -0.21516 -0.59115 1.68050
						CHANNELS 3 Zrotation Yrotation Xrotation
						End Site
						{
							OFFSET -0.00000 -0.00000 0.89604
						}
					}
				}
			}
		}
	}
	JOINT lowerback
	{
		OFFSET 0 0 0
		CHANNELS 3 Zrotation Yrotation Xrotation
		JOINT Chest
		{
			OFFSET 0.06382 1.72312 -0.19613
			CHANNELS 3 Zrotation Yrotation Xrotation
			JOINT Chest2
			{
				OFFSET -0.00055 1.73507 0.23859
				CHANNELS 3 Zrotation Yrotation Xrotation
				JOINT lowerneck
				{
					OFFSET 0 0 0
					CHANNELS 3 Zrotation Yrotation Xrotation
					JOINT Neck
					{
						OFFSET 0.03638 1.65562 0.09633
						CHANNELS 3 Zrotation Yrotation Xrotation
						JOINT Head
						{
							OFFSET 0.06388 1.62807 -0.32386
							CHANNELS 3 Zrotation Yrotation Xrotation
							End Site
							{
								OFFSET 0.00995 1.67644 -0.12021
							}
						}
					}
				}
				JOINT LeftCollar
				{
					OFFSET 0 0 0
					CHANNELS 3 Zrotation Yrotation Xrotation
					JOINT LeftShoulder
					{
						OFFSET 3.09648 1.42991 0.28122
CHANNELS 3 Zrotation Xrotation Yrotation
						JOINT LeftElbow
						{
OFFSET 0 -5.118780 -0.000000
CHANNELS 3 Zrotation Xrotation Yrotation
							JOINT LeftWrist
							{
OFFSET 0 -3.599710 0.000000
CHANNELS 3 Zrotation Xrotation Yrotation
								JOINT lhand
								{
									OFFSET 0 0 0
CHANNELS 3 Zrotation Xrotation Yrotation
									JOINT LFingers
									{
OFFSET 0 -0.628770 0.000000
CHANNELS 3 Zrotation Xrotation Yrotation
										End Site
										{
OFFSET 0 -0.506930 0.000000
										}
									}
								}
								JOINT LThumb
								{
OFFSET 0 0.000000 0.000000
CHANNELS 3 Zrotation Xrotation Yrotation
									End Site
									{
OFFSET 0 -0.514670 0.514670
									}
								}
							}
						}
					}
				}
				JOINT RightCollar
				{
					OFFSET 0 0 0
					CHANNELS 3 Zrotation Yrotation Xrotation
					JOINT RightShoulder
					{
						OFFSET -3.33565 1.14597 0.05047
CHANNELS 3 Zrotation Xrotation Yrotation
						JOINT RightElbow
						{
OFFSET 0 -5.490200 0.000000
CHANNELS 3 Zrotation Xrotation Yrotation
							JOINT RightWrist
							{
OFFSET 0 -3.206590 -0.000000
CHANNELS 3 Zrotation Xrotation Yrotation
								JOINT rhand
								{
									OFFSET 0 0 0
CHANNELS 3 Zrotation Xrotation Yrotation
									JOINT RFingers
									{
OFFSET 0 -0.691880 0.000000
CHANNELS 3 Zrotation Xrotation Yrotation
										End Site
										{
OFFSET 0 -0.557810 0.000000
										}
									}
								}
								JOINT RThumb
								{
OFFSET 0 0.000000 0.000000
CHANNELS 3 Zrotation Xrotation Yrotation
									End Site
									{
OFFSET 0 -0.566330 0.566330
									}
								}
							}
						}
					}
				}
			}
		}
	}
}
MOTION
Frames: 6
Frame Time: 0.008333333333333333
-0.328400 17.503500 7.377900 -8.519200 -5.904400 6.760000 0.000000 0.000000 0.000000 -14.050200 -26.842400 14.858600 0.005400 -0.473500 -1.301000 -3.547600 34.784300 -31.343000 0.169100 2.649200 7.303500 0.000000 0.000000 0.000000 27.487800 22.196500 4.485800 -0.048600 -1.422800 3.912900 0.102900 -11.855600 -15.376300 -0.007000 0.540300 -1.484700 4.113700 -0.012900 5.478100 2.164100 0.612200 -7.095700 -0.071300 0.072600 -10.654700 -11.691900 -13.772300 -2.409500 11.689800 -19.848600 14.183800 3.862100 -9.604700 7.071500 -0.000000 -0.000000 0.000000 -0.389000 2.413400 -53.123400 19.515900 -30.054700 5.286800 -13.540600 -33.136300 -10.121400 0.000000 0.000000 0.000000 -7.125000 0.000000 0.000000 -33.668500 37.809600 -6.944500 -0.000000 -0.000000 0.000000 -2.751900 2.997800 59.099800 -30.684900 -41.473200 -11.860600 -0.759100 -34.311300 30.463700 0.000000 0.000000 0.000000 7.125000 0.000000 -0.000000 33.372400 57.144700 -10.736300
-0.327632 17.499545 7.369475 -8.383800 -6.131665 6.704565 0.000000 0.000000 0.000000 -14.115540 -26.474001 14.723843 0.005400 -0.473230 -1.300410 -3.527853 34.670596 -31.171293 0.148583 2.483802 6.844772 0.000000 0.000000 0.000000 27.359740 22.322920 4.647181 -0.045615 -1.377920 3.789250 0.109347 -11.909781 -15.361722 -0.008545 0.595604 -1.636686 4.012418 0.124009 5.420526 2.090072 0.774885 -7.068096 -0.118264 0.157144 -10.582098 -11.937307 -13.795748 -2.542415 11.825233 -19.899582 14.366781 3.915186 -9.622549 7.199822 0.000000 0.000000 0.000000 -0.749268 2.111574 -56.438204 19.819242 -30.423903 5.439477 -6.857331 -27.871959 -5.753246 0.000000 0.000000 0.000000 -7.125000 0.000000 0.000000 -27.147000 34.528041 -7.713280 0.000000 0.000000 0.000000 -4.117524 4.419462 72.291412 -26.962572 -38.143452 -9.475988 31.377096 -22.015403 30.393305 0.000000 0.000000 0.000000 7.125000 0.000000 0.000000 60.178431 50.890857 -12.721455
-0.331670 17.505742 7.360558 -7.974681 -5.878897 6.609046 0.000000 0.000000 0.000000 -14.523806 -26.672016 14.642966 0.004675 -0.439963 -1.208872 -3.528876 34.608716 -30.987743 0.147058 2.471381 6.810291 0.000000 0.000000 0.000000 26.958399 22.488741 4.926074 -0.039470 -1.282029 3.525195 0.156577 -12.472922 -15.533037 -0.007989 0.577476 -1.586944 3.559194 0.059440 5.401302 2.002324 0.633719 -7.134521 0.061930 0.118931 -10.648499 -11.920229 -13.762739 -2.257573 11.724399 -19.847055 14.236305 3.913498 -9.618630 7.089454 0.000000 0.000000 0.000000 -1.225231 1.701254 -56.337275 20.007646 -30.651471 5.535288 -6.805282 -28.033879 -4.088925 0.000000 0.000000 0.000000 -7.125000 0.000000 0.000000 -26.610753 33.037447 -8.620156 0.000000 0.000000 0.000000 -4.113644 4.091436 72.667300 -27.672902 -38.813368 -9.917992 31.395977 -26.186436 33.871125 0.000000 0.000000 0.000000 7.125000 0.000000 0.000000 63.855309 53.052776 -18.585562
-0.336989 17.512463 7.364476 -7.644053 -5.528100 6.522815 0.000000 0.000000 0.000000 -14.890335 -26.845697 14.663398 0.004543 -0.437040 -1.200899 -3.553679 34.569729 -30.681605 0.131920 2.340700 6.448176 0.000000 0.000000 0.000000 26.707752 22.605037 5.336199 -0.032037 -1.154426 3.173909 0.207223 -13.083518 -15.767359 -0.006523 0.521483 -1.433049 3.215259 -0.033107 5.210052 1.921701 0.457110 -7.178959 0.193199 0.057082 -10.585630 -11.889300 -13.726392 -1.986357 11.629782 -19.797381 14.153485 3.909540 -9.613243 6.996725 0.000000 0.000000 0.000000 -1.278848 1.824133 -58.716325 20.275189 -30.972341 5.672291 1.213196 -24.119508 -0.628055 0.000000 0.000000 0.000000 -7.125000 0.000000 0.000000 -19.788647 30.230115 -7.529974 0.000000 0.000000 0.000000 -4.198384 3.878486 73.191972 -27.539109 -38.688453 -9.834240 19.346499 -19.180686 34.847915 0.000000 0.000000 0.000000 7.125000 0.000000 0.000000 55.620439 56.142202 -19.307948
-0.342140 17.517668 7.372104 -7.439174 -5.193800 6.464195 0.000000 0.000000 0.000000 -15.151171 -27.020003 14.763949 0.005098 -0.459654 -1.262960 -3.603460 34.603290 -30.383105 0.113721 2.173644 5.985830 0.000000 0.000000 0.000000 26.603131 22.690873 5.701180 -0.026436 -1.049585 2.885228 0.249027 -13.585401 -15.988296 -0.004853 0.448889 -1.233407 3.051257 -0.102759 5.099202 1.834898 0.336802 -7.295038 0.210274 0.006279 -10.650391 -11.869792 -13.700854 -1.670723 11.570625 -19.781930 14.132344 3.915584 -9.623566 6.925672 0.000000 0.000000 0.000000 -0.908264 2.406394 -62.230980 20.621288 -31.383469 5.851455 13.715419 -18.426163 0.556224 0.000000 0.000000 0.000000 -7.125000 0.000000 0.000000 -10.034555 29.337123 -3.884671 0.000000 0.000000 0.000000 -4.225786 3.921357 73.318001 -27.448761 -38.603813 -9.777841 11.992491 -14.933348 34.960662 0.000000 0.000000 0.000000 7.125000 0.000000 0.000000 49.510715 57.827019 -18.464789
-0.345268 17.519317 7.378262 -7.409296 -4.965004 6.437616 0.000000 0.000000 0.000000 -15.221907 -27.112180 14.883433 0.006023 -0.499307 -1.372048 -3.651946 34.652269 -30.135337 0.098628 2.025162 5.575156 0.000000 0.000000 0.000000 26.649080 22.679246 5.913734 -0.023238 -0.983255 2.702888 0.270454 -13.836021 -16.100499 -0.004089 0.412678 -1.133958 3.114579 -0.118593 5.137894 1.767538 0.323693 -7.476749 0.107303 -0.011743 -10.878870 -11.911971 -13.692758 -1.387049 11.560370 -19.806839 14.214968 3.934859 -9.649880 6.910034 0.000000 0.000000 0.000000 -0.728787 2.629935 -62.171490 20.816593 -31.613562 5.953519 14.042804 -18.163521 1.406458 0.000000 0.000000 0.000000 -7.125000 0.000000 0.000000 -9.701825 28.476301 -3.953934 0.000000 0.000000 0.000000 -4.170391 4.211869 72.917392 -27.264763 -38.430517 -9.663298 10.545406 -13.541612 34.567678 0.000000 0.000000 0.000000 7.125000 0.000000 0.000000 47.807241 57.874554 -17.669179
